# xmcd CD database file
#
# Track frame offsets:
#	225
#	31907
#	58004
#	70132
#	115923
#	136121
#	215711
#
# Disc length: 3499 seconds
#
# Revision: 0
# Processed by: cddbd v1.5.2PL0 Copyright (c) Steve Scherf et al.
# Submitted via: CDex 1.51
#
DISCID=640da807
DTITLE=Ten Part Invention - Unidentified Spaces
DYEAR=2000
DGENRE=Jazz
TTITLE0=Blues for Clancye
TTITLE1=Unidentified Spaces - ForTea Two
TTITLE2=Unidentified Spaces - The Heart
TTITLE3=Unidentified Spaces - North Pole
TTITLE4=Unidentified Spaces - Queensland
TTITLE5=Folk Song
TTITLE6=The Strongest Man In Indonesia
EXTD=YEAR: 2000
EXTT0=
EXTT1=
EXTT2=
EXTT3=
EXTT4=
EXTT5=
EXTT6=
PLAYORDER=
